# xmcd
#
# Track frame offsets:
#	150
#	11650
#	24225
#	42037
#	53480
#	65025
#	87550
#	100600
#	117050
#	136695
#	155100
#	173130
#	185145
#	200537
#
# Disc length: 2838 seconds
#
# Revision: 1
# Processed by: cddbd v1.4PL0 Copyright (c) Steve Scherf et al.
# Submitted via: audiograbber 1.81.02
#
DISCID=b40b140e
DTITLE=Darrow, Chris - Fretless '79
DYEAR=1979
DGENRE=
TTITLE0=Goin' Along For The Ride
TTITLE1=I Know It's Coming
TTITLE2=Tears Of Joy And Sorrow
TTITLE3=Time Will Tell
TTITLE4=Joy Ride To T.J.
TTITLE5=Joaquin (The Saga Of Joaquin Murrieta)
TTITLE6=Almost Twilight
TTITLE7=Too Ripe On The Vine
TTITLE8=Orphans Of The Storm
TTITLE9=Oceana
TTITLE10=For As Long As I Live
TTITLE11=Tears Of Joy And Sorrow (Alternate Take)
TTITLE12=Night Owl
TTITLE13=I Know It's Coming (Alternate Take)
EXTD=
EXTT0=
EXTT1=
EXTT2=
EXTT3=
EXTT4=
EXTT5=
EXTT6=
EXTT7=
EXTT8=
EXTT9=
EXTT10=
EXTT11=
EXTT12=
EXTT13=
PLAYORDER=
